<mxfile host="app.diagrams.net" modified="2024-03-17T19:57:40.712Z" agent="Mozilla/5.0 (Windows NT 10.0; Win64; x64) AppleWebKit/537.36 (KHTML, like Gecko) Chrome/122.0.0.0 Safari/537.36" etag="E_diJU56JovqV74ftK7E" version="24.0.7" type="github">
  <diagram id="C5RBs43oDa-KdzZeNtuy" name="Page-1">
    <mxGraphModel dx="1434" dy="786" grid="1" gridSize="10" guides="1" tooltips="1" connect="1" arrows="1" fold="1" page="1" pageScale="1" pageWidth="827" pageHeight="1169" math="0" shadow="0">
      <root>
        <mxCell id="WIyWlLk6GJQsqaUBKTNV-0" />
        <mxCell id="WIyWlLk6GJQsqaUBKTNV-1" parent="WIyWlLk6GJQsqaUBKTNV-0" />
        <mxCell id="9PHeEGNohPRG5MEMTAq7-85" value="" style="html=1;whiteSpace=wrap;" vertex="1" parent="WIyWlLk6GJQsqaUBKTNV-1">
          <mxGeometry x="40" y="685" width="1270" height="450" as="geometry" />
        </mxCell>
        <mxCell id="9PHeEGNohPRG5MEMTAq7-56" value="" style="html=1;whiteSpace=wrap;" vertex="1" parent="WIyWlLk6GJQsqaUBKTNV-1">
          <mxGeometry x="40" y="20" width="1270" height="640" as="geometry" />
        </mxCell>
        <mxCell id="9PHeEGNohPRG5MEMTAq7-55" value="" style="rounded=0;whiteSpace=wrap;html=1;" vertex="1" parent="WIyWlLk6GJQsqaUBKTNV-1">
          <mxGeometry x="170" y="40" width="950" height="165" as="geometry" />
        </mxCell>
        <mxCell id="9PHeEGNohPRG5MEMTAq7-1" value="Chess layer" style="text;html=1;align=center;verticalAlign=middle;whiteSpace=wrap;rounded=0;" vertex="1" parent="WIyWlLk6GJQsqaUBKTNV-1">
          <mxGeometry x="50" y="40" width="70" height="30" as="geometry" />
        </mxCell>
        <mxCell id="9PHeEGNohPRG5MEMTAq7-6" value="ChessException" style="swimlane;fontStyle=1;align=center;verticalAlign=top;childLayout=stackLayout;horizontal=1;startSize=26;horizontalStack=0;resizeParent=1;resizeParentMax=0;resizeLast=0;collapsible=1;marginBottom=0;whiteSpace=wrap;html=1;" vertex="1" parent="WIyWlLk6GJQsqaUBKTNV-1">
          <mxGeometry x="250" y="87" width="220" height="60" as="geometry" />
        </mxCell>
        <mxCell id="9PHeEGNohPRG5MEMTAq7-8" value="" style="line;strokeWidth=1;fillColor=none;align=left;verticalAlign=middle;spacingTop=-1;spacingLeft=3;spacingRight=3;rotatable=0;labelPosition=right;points=[];portConstraint=eastwest;strokeColor=inherit;" vertex="1" parent="9PHeEGNohPRG5MEMTAq7-6">
          <mxGeometry y="26" width="220" height="8" as="geometry" />
        </mxCell>
        <mxCell id="9PHeEGNohPRG5MEMTAq7-9" value="+ ChessException(msg: String) : void" style="text;strokeColor=none;fillColor=none;align=left;verticalAlign=top;spacingLeft=4;spacingRight=4;overflow=hidden;rotatable=0;points=[[0,0.5],[1,0.5]];portConstraint=eastwest;whiteSpace=wrap;html=1;" vertex="1" parent="9PHeEGNohPRG5MEMTAq7-6">
          <mxGeometry y="34" width="220" height="26" as="geometry" />
        </mxCell>
        <mxCell id="9PHeEGNohPRG5MEMTAq7-10" value="&lt;div&gt;&lt;span style=&quot;font-weight: 400;&quot;&gt;&amp;lt;&amp;lt;enum&amp;gt;&amp;gt;&lt;/span&gt;&lt;/div&gt;Color" style="swimlane;fontStyle=1;align=center;verticalAlign=top;childLayout=stackLayout;horizontal=1;startSize=40;horizontalStack=0;resizeParent=1;resizeParentMax=0;resizeLast=0;collapsible=1;marginBottom=0;whiteSpace=wrap;html=1;" vertex="1" parent="WIyWlLk6GJQsqaUBKTNV-1">
          <mxGeometry x="560" y="60" width="100" height="104" as="geometry" />
        </mxCell>
        <mxCell id="9PHeEGNohPRG5MEMTAq7-11" value="- BLACK : int&lt;div&gt;- WHITE : int&lt;/div&gt;" style="text;strokeColor=none;fillColor=none;align=left;verticalAlign=top;spacingLeft=4;spacingRight=4;overflow=hidden;rotatable=0;points=[[0,0.5],[1,0.5]];portConstraint=eastwest;whiteSpace=wrap;html=1;" vertex="1" parent="9PHeEGNohPRG5MEMTAq7-10">
          <mxGeometry y="40" width="100" height="40" as="geometry" />
        </mxCell>
        <mxCell id="9PHeEGNohPRG5MEMTAq7-12" value="" style="line;strokeWidth=1;fillColor=none;align=left;verticalAlign=middle;spacingTop=-1;spacingLeft=3;spacingRight=3;rotatable=0;labelPosition=right;points=[];portConstraint=eastwest;strokeColor=inherit;" vertex="1" parent="9PHeEGNohPRG5MEMTAq7-10">
          <mxGeometry y="80" width="100" height="24" as="geometry" />
        </mxCell>
        <mxCell id="9PHeEGNohPRG5MEMTAq7-14" value="ChessPosition" style="swimlane;fontStyle=1;align=center;verticalAlign=top;childLayout=stackLayout;horizontal=1;startSize=26;horizontalStack=0;resizeParent=1;resizeParentMax=0;resizeLast=0;collapsible=1;marginBottom=0;whiteSpace=wrap;html=1;" vertex="1" parent="WIyWlLk6GJQsqaUBKTNV-1">
          <mxGeometry x="760" y="60" width="280" height="120" as="geometry" />
        </mxCell>
        <mxCell id="9PHeEGNohPRG5MEMTAq7-15" value="- column : char&lt;div&gt;- row : int&lt;/div&gt;" style="text;strokeColor=none;fillColor=none;align=left;verticalAlign=top;spacingLeft=4;spacingRight=4;overflow=hidden;rotatable=0;points=[[0,0.5],[1,0.5]];portConstraint=eastwest;whiteSpace=wrap;html=1;" vertex="1" parent="9PHeEGNohPRG5MEMTAq7-14">
          <mxGeometry y="26" width="280" height="34" as="geometry" />
        </mxCell>
        <mxCell id="9PHeEGNohPRG5MEMTAq7-16" value="" style="line;strokeWidth=1;fillColor=none;align=left;verticalAlign=middle;spacingTop=-1;spacingLeft=3;spacingRight=3;rotatable=0;labelPosition=right;points=[];portConstraint=eastwest;strokeColor=inherit;" vertex="1" parent="9PHeEGNohPRG5MEMTAq7-14">
          <mxGeometry y="60" width="280" height="18" as="geometry" />
        </mxCell>
        <mxCell id="9PHeEGNohPRG5MEMTAq7-17" value="# toPosition() : Position&lt;div&gt;# fromPosition(position : Position): ChessPosition&lt;/div&gt;" style="text;strokeColor=none;fillColor=none;align=left;verticalAlign=top;spacingLeft=4;spacingRight=4;overflow=hidden;rotatable=0;points=[[0,0.5],[1,0.5]];portConstraint=eastwest;whiteSpace=wrap;html=1;" vertex="1" parent="9PHeEGNohPRG5MEMTAq7-14">
          <mxGeometry y="78" width="280" height="42" as="geometry" />
        </mxCell>
        <mxCell id="9PHeEGNohPRG5MEMTAq7-18" value="ChessMatch&lt;div&gt;&lt;br&gt;&lt;/div&gt;" style="swimlane;fontStyle=1;align=center;verticalAlign=top;childLayout=stackLayout;horizontal=1;startSize=26;horizontalStack=0;resizeParent=1;resizeParentMax=0;resizeLast=0;collapsible=1;marginBottom=0;whiteSpace=wrap;html=1;" vertex="1" parent="WIyWlLk6GJQsqaUBKTNV-1">
          <mxGeometry x="70" y="360" width="540" height="200" as="geometry" />
        </mxCell>
        <mxCell id="9PHeEGNohPRG5MEMTAq7-19" value="- turn : int&lt;div&gt;- currentPlayer : Color&lt;/div&gt;&lt;div&gt;- check : boolean&lt;/div&gt;&lt;div&gt;- checkMate : boolean&lt;/div&gt;&lt;div&gt;- enPassantVulnerable : ChessPiece&lt;/div&gt;&lt;div&gt;- promoted : ChessPiece&lt;/div&gt;" style="text;strokeColor=none;fillColor=none;align=left;verticalAlign=top;spacingLeft=4;spacingRight=4;overflow=hidden;rotatable=0;points=[[0,0.5],[1,0.5]];portConstraint=eastwest;whiteSpace=wrap;html=1;" vertex="1" parent="9PHeEGNohPRG5MEMTAq7-18">
          <mxGeometry y="26" width="540" height="94" as="geometry" />
        </mxCell>
        <mxCell id="9PHeEGNohPRG5MEMTAq7-20" value="" style="line;strokeWidth=1;fillColor=none;align=left;verticalAlign=middle;spacingTop=-1;spacingLeft=3;spacingRight=3;rotatable=0;labelPosition=right;points=[];portConstraint=eastwest;strokeColor=inherit;" vertex="1" parent="9PHeEGNohPRG5MEMTAq7-18">
          <mxGeometry y="120" width="540" height="8" as="geometry" />
        </mxCell>
        <mxCell id="9PHeEGNohPRG5MEMTAq7-21" value="+ getPieces() : ChessPiece[][]&lt;div&gt;+ possibleMoves(sourcePosition : ChessPosition) : boolean[][]&amp;nbsp;&lt;/div&gt;&lt;div&gt;+ performChessMove(sourcePosition : ChessPosition, targetPosition: ChessPosition): ChessPiece&lt;/div&gt;&lt;div&gt;+ replacePromotedPiece(type : String) : ChessPiece&lt;/div&gt;" style="text;strokeColor=none;fillColor=none;align=left;verticalAlign=top;spacingLeft=4;spacingRight=4;overflow=hidden;rotatable=0;points=[[0,0.5],[1,0.5]];portConstraint=eastwest;whiteSpace=wrap;html=1;" vertex="1" parent="9PHeEGNohPRG5MEMTAq7-18">
          <mxGeometry y="128" width="540" height="72" as="geometry" />
        </mxCell>
        <mxCell id="9PHeEGNohPRG5MEMTAq7-22" value="King" style="swimlane;fontStyle=1;align=center;verticalAlign=top;childLayout=stackLayout;horizontal=1;startSize=26;horizontalStack=0;resizeParent=1;resizeParentMax=0;resizeLast=0;collapsible=1;marginBottom=0;whiteSpace=wrap;html=1;" vertex="1" parent="WIyWlLk6GJQsqaUBKTNV-1">
          <mxGeometry x="640" y="270" width="80" height="34" as="geometry" />
        </mxCell>
        <mxCell id="9PHeEGNohPRG5MEMTAq7-24" value="" style="line;strokeWidth=1;fillColor=none;align=left;verticalAlign=middle;spacingTop=-1;spacingLeft=3;spacingRight=3;rotatable=0;labelPosition=right;points=[];portConstraint=eastwest;strokeColor=inherit;" vertex="1" parent="9PHeEGNohPRG5MEMTAq7-22">
          <mxGeometry y="26" width="80" height="8" as="geometry" />
        </mxCell>
        <mxCell id="9PHeEGNohPRG5MEMTAq7-26" value="Bishop" style="swimlane;fontStyle=1;align=center;verticalAlign=top;childLayout=stackLayout;horizontal=1;startSize=26;horizontalStack=0;resizeParent=1;resizeParentMax=0;resizeLast=0;collapsible=1;marginBottom=0;whiteSpace=wrap;html=1;" vertex="1" parent="WIyWlLk6GJQsqaUBKTNV-1">
          <mxGeometry x="740" y="270" width="80" height="34" as="geometry" />
        </mxCell>
        <mxCell id="9PHeEGNohPRG5MEMTAq7-27" value="" style="line;strokeWidth=1;fillColor=none;align=left;verticalAlign=middle;spacingTop=-1;spacingLeft=3;spacingRight=3;rotatable=0;labelPosition=right;points=[];portConstraint=eastwest;strokeColor=inherit;" vertex="1" parent="9PHeEGNohPRG5MEMTAq7-26">
          <mxGeometry y="26" width="80" height="8" as="geometry" />
        </mxCell>
        <mxCell id="9PHeEGNohPRG5MEMTAq7-28" value="Knight" style="swimlane;fontStyle=1;align=center;verticalAlign=top;childLayout=stackLayout;horizontal=1;startSize=26;horizontalStack=0;resizeParent=1;resizeParentMax=0;resizeLast=0;collapsible=1;marginBottom=0;whiteSpace=wrap;html=1;" vertex="1" parent="WIyWlLk6GJQsqaUBKTNV-1">
          <mxGeometry x="840" y="270" width="80" height="34" as="geometry" />
        </mxCell>
        <mxCell id="9PHeEGNohPRG5MEMTAq7-29" value="" style="line;strokeWidth=1;fillColor=none;align=left;verticalAlign=middle;spacingTop=-1;spacingLeft=3;spacingRight=3;rotatable=0;labelPosition=right;points=[];portConstraint=eastwest;strokeColor=inherit;" vertex="1" parent="9PHeEGNohPRG5MEMTAq7-28">
          <mxGeometry y="26" width="80" height="8" as="geometry" />
        </mxCell>
        <mxCell id="9PHeEGNohPRG5MEMTAq7-30" value="Pawn" style="swimlane;fontStyle=1;align=center;verticalAlign=top;childLayout=stackLayout;horizontal=1;startSize=26;horizontalStack=0;resizeParent=1;resizeParentMax=0;resizeLast=0;collapsible=1;marginBottom=0;whiteSpace=wrap;html=1;" vertex="1" parent="WIyWlLk6GJQsqaUBKTNV-1">
          <mxGeometry x="940" y="270" width="80" height="34" as="geometry" />
        </mxCell>
        <mxCell id="9PHeEGNohPRG5MEMTAq7-31" value="" style="line;strokeWidth=1;fillColor=none;align=left;verticalAlign=middle;spacingTop=-1;spacingLeft=3;spacingRight=3;rotatable=0;labelPosition=right;points=[];portConstraint=eastwest;strokeColor=inherit;" vertex="1" parent="9PHeEGNohPRG5MEMTAq7-30">
          <mxGeometry y="26" width="80" height="8" as="geometry" />
        </mxCell>
        <mxCell id="9PHeEGNohPRG5MEMTAq7-32" value="Queen" style="swimlane;fontStyle=1;align=center;verticalAlign=top;childLayout=stackLayout;horizontal=1;startSize=26;horizontalStack=0;resizeParent=1;resizeParentMax=0;resizeLast=0;collapsible=1;marginBottom=0;whiteSpace=wrap;html=1;" vertex="1" parent="WIyWlLk6GJQsqaUBKTNV-1">
          <mxGeometry x="1040" y="270" width="80" height="34" as="geometry" />
        </mxCell>
        <mxCell id="9PHeEGNohPRG5MEMTAq7-33" value="" style="line;strokeWidth=1;fillColor=none;align=left;verticalAlign=middle;spacingTop=-1;spacingLeft=3;spacingRight=3;rotatable=0;labelPosition=right;points=[];portConstraint=eastwest;strokeColor=inherit;" vertex="1" parent="9PHeEGNohPRG5MEMTAq7-32">
          <mxGeometry y="26" width="80" height="8" as="geometry" />
        </mxCell>
        <mxCell id="9PHeEGNohPRG5MEMTAq7-34" value="Rook" style="swimlane;fontStyle=1;align=center;verticalAlign=top;childLayout=stackLayout;horizontal=1;startSize=26;horizontalStack=0;resizeParent=1;resizeParentMax=0;resizeLast=0;collapsible=1;marginBottom=0;whiteSpace=wrap;html=1;" vertex="1" parent="WIyWlLk6GJQsqaUBKTNV-1">
          <mxGeometry x="1140" y="270" width="80" height="34" as="geometry" />
        </mxCell>
        <mxCell id="9PHeEGNohPRG5MEMTAq7-35" value="" style="line;strokeWidth=1;fillColor=none;align=left;verticalAlign=middle;spacingTop=-1;spacingLeft=3;spacingRight=3;rotatable=0;labelPosition=right;points=[];portConstraint=eastwest;strokeColor=inherit;" vertex="1" parent="9PHeEGNohPRG5MEMTAq7-34">
          <mxGeometry y="26" width="80" height="8" as="geometry" />
        </mxCell>
        <mxCell id="9PHeEGNohPRG5MEMTAq7-40" value="" style="edgeStyle=elbowEdgeStyle;elbow=vertical;endArrow=classic;html=1;curved=0;rounded=0;endSize=8;startSize=8;entryX=0.767;entryY=0;entryDx=0;entryDy=0;entryPerimeter=0;exitX=0.5;exitY=0;exitDx=0;exitDy=0;" edge="1" parent="WIyWlLk6GJQsqaUBKTNV-1" source="9PHeEGNohPRG5MEMTAq7-30">
          <mxGeometry width="50" height="50" relative="1" as="geometry">
            <mxPoint x="945.82" y="270" as="sourcePoint" />
            <mxPoint x="450.00000000000006" y="360" as="targetPoint" />
            <Array as="points">
              <mxPoint x="695.82" y="250" />
            </Array>
          </mxGeometry>
        </mxCell>
        <mxCell id="9PHeEGNohPRG5MEMTAq7-41" value="1" style="edgeLabel;html=1;align=center;verticalAlign=middle;resizable=0;points=[];" vertex="1" connectable="0" parent="9PHeEGNohPRG5MEMTAq7-40">
          <mxGeometry x="0.9009" y="4" relative="1" as="geometry">
            <mxPoint x="-18" y="11" as="offset" />
          </mxGeometry>
        </mxCell>
        <mxCell id="9PHeEGNohPRG5MEMTAq7-42" value="- chessMatch" style="edgeLabel;html=1;align=center;verticalAlign=middle;resizable=0;points=[];" vertex="1" connectable="0" parent="9PHeEGNohPRG5MEMTAq7-40">
          <mxGeometry x="0.9233" relative="1" as="geometry">
            <mxPoint x="36" y="4" as="offset" />
          </mxGeometry>
        </mxCell>
        <mxCell id="9PHeEGNohPRG5MEMTAq7-43" value="ChessPiece&lt;div&gt;&lt;br&gt;&lt;/div&gt;" style="swimlane;fontStyle=1;align=center;verticalAlign=top;childLayout=stackLayout;horizontal=1;startSize=26;horizontalStack=0;resizeParent=1;resizeParentMax=0;resizeLast=0;collapsible=1;marginBottom=0;whiteSpace=wrap;html=1;" vertex="1" parent="WIyWlLk6GJQsqaUBKTNV-1">
          <mxGeometry x="800" y="410" width="310" height="150" as="geometry" />
        </mxCell>
        <mxCell id="9PHeEGNohPRG5MEMTAq7-44" value="- color: Color&lt;div&gt;- moveCount: int&lt;/div&gt;" style="text;strokeColor=none;fillColor=none;align=left;verticalAlign=top;spacingLeft=4;spacingRight=4;overflow=hidden;rotatable=0;points=[[0,0.5],[1,0.5]];portConstraint=eastwest;whiteSpace=wrap;html=1;" vertex="1" parent="9PHeEGNohPRG5MEMTAq7-43">
          <mxGeometry y="26" width="310" height="44" as="geometry" />
        </mxCell>
        <mxCell id="9PHeEGNohPRG5MEMTAq7-45" value="" style="line;strokeWidth=1;fillColor=none;align=left;verticalAlign=middle;spacingTop=-1;spacingLeft=3;spacingRight=3;rotatable=0;labelPosition=right;points=[];portConstraint=eastwest;strokeColor=inherit;" vertex="1" parent="9PHeEGNohPRG5MEMTAq7-43">
          <mxGeometry y="70" width="310" height="8" as="geometry" />
        </mxCell>
        <mxCell id="9PHeEGNohPRG5MEMTAq7-46" value="+ getChessPosition(): ChessPosition&lt;div&gt;# isThereOpponentPiece(positon : Position) : boolean&amp;nbsp;&lt;/div&gt;&lt;div&gt;# increaseMoveCount() : void&lt;/div&gt;&lt;div&gt;# decreaseMoveCount() : void&lt;/div&gt;" style="text;strokeColor=none;fillColor=none;align=left;verticalAlign=top;spacingLeft=4;spacingRight=4;overflow=hidden;rotatable=0;points=[[0,0.5],[1,0.5]];portConstraint=eastwest;whiteSpace=wrap;html=1;" vertex="1" parent="9PHeEGNohPRG5MEMTAq7-43">
          <mxGeometry y="78" width="310" height="72" as="geometry" />
        </mxCell>
        <mxCell id="9PHeEGNohPRG5MEMTAq7-58" value="" style="endArrow=open;endFill=1;endSize=12;html=1;rounded=0;exitX=0;exitY=1;exitDx=0;exitDy=0;entryX=1;entryY=0;entryDx=0;entryDy=0;" edge="1" parent="WIyWlLk6GJQsqaUBKTNV-1" source="9PHeEGNohPRG5MEMTAq7-22" target="9PHeEGNohPRG5MEMTAq7-18">
          <mxGeometry width="160" relative="1" as="geometry">
            <mxPoint x="520" y="650" as="sourcePoint" />
            <mxPoint x="680" y="650" as="targetPoint" />
          </mxGeometry>
        </mxCell>
        <mxCell id="9PHeEGNohPRG5MEMTAq7-59" value="1" style="edgeLabel;html=1;align=center;verticalAlign=middle;resizable=0;points=[];" vertex="1" connectable="0" parent="9PHeEGNohPRG5MEMTAq7-58">
          <mxGeometry x="0.3796" y="1" relative="1" as="geometry">
            <mxPoint x="-20" y="-3" as="offset" />
          </mxGeometry>
        </mxCell>
        <mxCell id="9PHeEGNohPRG5MEMTAq7-60" value="&amp;nbsp;- chessMatch" style="edgeLabel;html=1;align=center;verticalAlign=middle;resizable=0;points=[];" vertex="1" connectable="0" parent="9PHeEGNohPRG5MEMTAq7-58">
          <mxGeometry x="0.3796" y="1" relative="1" as="geometry">
            <mxPoint x="30" y="17" as="offset" />
          </mxGeometry>
        </mxCell>
        <mxCell id="9PHeEGNohPRG5MEMTAq7-61" value="" style="endArrow=block;endSize=16;endFill=0;html=1;rounded=0;exitX=0.5;exitY=1;exitDx=0;exitDy=0;entryX=0.165;entryY=-0.006;entryDx=0;entryDy=0;entryPerimeter=0;" edge="1" parent="WIyWlLk6GJQsqaUBKTNV-1" source="9PHeEGNohPRG5MEMTAq7-22" target="9PHeEGNohPRG5MEMTAq7-43">
          <mxGeometry width="160" relative="1" as="geometry">
            <mxPoint x="520" y="450" as="sourcePoint" />
            <mxPoint x="680" y="450" as="targetPoint" />
          </mxGeometry>
        </mxCell>
        <mxCell id="9PHeEGNohPRG5MEMTAq7-62" value="" style="endArrow=block;endSize=16;endFill=0;html=1;rounded=0;exitX=0.475;exitY=1.125;exitDx=0;exitDy=0;exitPerimeter=0;" edge="1" parent="WIyWlLk6GJQsqaUBKTNV-1" source="9PHeEGNohPRG5MEMTAq7-27">
          <mxGeometry width="160" relative="1" as="geometry">
            <mxPoint x="760" y="304" as="sourcePoint" />
            <mxPoint x="890" y="410" as="targetPoint" />
          </mxGeometry>
        </mxCell>
        <mxCell id="9PHeEGNohPRG5MEMTAq7-63" value="" style="endArrow=block;endSize=16;endFill=0;html=1;rounded=0;exitX=0.5;exitY=1;exitDx=0;exitDy=0;" edge="1" parent="WIyWlLk6GJQsqaUBKTNV-1" source="9PHeEGNohPRG5MEMTAq7-28" target="9PHeEGNohPRG5MEMTAq7-43">
          <mxGeometry width="160" relative="1" as="geometry">
            <mxPoint x="788" y="315" as="sourcePoint" />
            <mxPoint x="850" y="420" as="targetPoint" />
          </mxGeometry>
        </mxCell>
        <mxCell id="9PHeEGNohPRG5MEMTAq7-65" value="" style="endArrow=block;endSize=16;endFill=0;html=1;rounded=0;exitX=0.5;exitY=1.125;exitDx=0;exitDy=0;entryX=0.5;entryY=0;entryDx=0;entryDy=0;exitPerimeter=0;" edge="1" parent="WIyWlLk6GJQsqaUBKTNV-1" source="9PHeEGNohPRG5MEMTAq7-31" target="9PHeEGNohPRG5MEMTAq7-43">
          <mxGeometry width="160" relative="1" as="geometry">
            <mxPoint x="890" y="314" as="sourcePoint" />
            <mxPoint x="931" y="420" as="targetPoint" />
          </mxGeometry>
        </mxCell>
        <mxCell id="9PHeEGNohPRG5MEMTAq7-66" value="" style="endArrow=block;endSize=16;endFill=0;html=1;rounded=0;exitX=0.5;exitY=1;exitDx=0;exitDy=0;entryX=0.603;entryY=-0.006;entryDx=0;entryDy=0;entryPerimeter=0;" edge="1" parent="WIyWlLk6GJQsqaUBKTNV-1" source="9PHeEGNohPRG5MEMTAq7-32" target="9PHeEGNohPRG5MEMTAq7-43">
          <mxGeometry width="160" relative="1" as="geometry">
            <mxPoint x="990" y="315" as="sourcePoint" />
            <mxPoint x="965" y="420" as="targetPoint" />
          </mxGeometry>
        </mxCell>
        <mxCell id="9PHeEGNohPRG5MEMTAq7-67" value="" style="endArrow=block;endSize=16;endFill=0;html=1;rounded=0;entryX=0.75;entryY=0;entryDx=0;entryDy=0;exitX=0.5;exitY=1;exitDx=0;exitDy=0;" edge="1" parent="WIyWlLk6GJQsqaUBKTNV-1" source="9PHeEGNohPRG5MEMTAq7-34" target="9PHeEGNohPRG5MEMTAq7-43">
          <mxGeometry width="160" relative="1" as="geometry">
            <mxPoint x="1090" y="314" as="sourcePoint" />
            <mxPoint x="997" y="419" as="targetPoint" />
          </mxGeometry>
        </mxCell>
        <mxCell id="9PHeEGNohPRG5MEMTAq7-69" value="&lt;div&gt;Board&lt;/div&gt;" style="swimlane;fontStyle=1;align=center;verticalAlign=top;childLayout=stackLayout;horizontal=1;startSize=26;horizontalStack=0;resizeParent=1;resizeParentMax=0;resizeLast=0;collapsible=1;marginBottom=0;whiteSpace=wrap;html=1;" vertex="1" parent="WIyWlLk6GJQsqaUBKTNV-1">
          <mxGeometry x="185" y="745" width="310" height="170" as="geometry" />
        </mxCell>
        <mxCell id="9PHeEGNohPRG5MEMTAq7-70" value="- rows : int&lt;div&gt;- columns : int&lt;/div&gt;" style="text;strokeColor=none;fillColor=none;align=left;verticalAlign=top;spacingLeft=4;spacingRight=4;overflow=hidden;rotatable=0;points=[[0,0.5],[1,0.5]];portConstraint=eastwest;whiteSpace=wrap;html=1;" vertex="1" parent="9PHeEGNohPRG5MEMTAq7-69">
          <mxGeometry y="26" width="310" height="34" as="geometry" />
        </mxCell>
        <mxCell id="9PHeEGNohPRG5MEMTAq7-71" value="" style="line;strokeWidth=1;fillColor=none;align=left;verticalAlign=middle;spacingTop=-1;spacingLeft=3;spacingRight=3;rotatable=0;labelPosition=right;points=[];portConstraint=eastwest;strokeColor=inherit;" vertex="1" parent="9PHeEGNohPRG5MEMTAq7-69">
          <mxGeometry y="60" width="310" height="8" as="geometry" />
        </mxCell>
        <mxCell id="9PHeEGNohPRG5MEMTAq7-72" value="+ pieces(row: int, columns : int) Piece&lt;div&gt;+ piece(position: Position) : Piece&amp;nbsp;&lt;/div&gt;&lt;div&gt;+ placePiece(piece: Piece, position : Position) : void&lt;/div&gt;&lt;div&gt;+ removePiece(position : Position) : Piece&lt;/div&gt;&lt;div&gt;+ positionExists(position: Position) : boolean&lt;/div&gt;&lt;div&gt;+ thereIsAPiece(position: Position) : boolean&lt;/div&gt;" style="text;strokeColor=none;fillColor=none;align=left;verticalAlign=top;spacingLeft=4;spacingRight=4;overflow=hidden;rotatable=0;points=[[0,0.5],[1,0.5]];portConstraint=eastwest;whiteSpace=wrap;html=1;" vertex="1" parent="9PHeEGNohPRG5MEMTAq7-69">
          <mxGeometry y="68" width="310" height="102" as="geometry" />
        </mxCell>
        <mxCell id="9PHeEGNohPRG5MEMTAq7-73" value="Piece&lt;div&gt;&lt;br&gt;&lt;/div&gt;" style="swimlane;fontStyle=1;align=center;verticalAlign=top;childLayout=stackLayout;horizontal=1;startSize=26;horizontalStack=0;resizeParent=1;resizeParentMax=0;resizeLast=0;collapsible=1;marginBottom=0;whiteSpace=wrap;html=1;" vertex="1" parent="WIyWlLk6GJQsqaUBKTNV-1">
          <mxGeometry x="800" y="760" width="310" height="120" as="geometry" />
        </mxCell>
        <mxCell id="9PHeEGNohPRG5MEMTAq7-74" value="# position: Position" style="text;strokeColor=none;fillColor=none;align=left;verticalAlign=top;spacingLeft=4;spacingRight=4;overflow=hidden;rotatable=0;points=[[0,0.5],[1,0.5]];portConstraint=eastwest;whiteSpace=wrap;html=1;" vertex="1" parent="9PHeEGNohPRG5MEMTAq7-73">
          <mxGeometry y="26" width="310" height="24" as="geometry" />
        </mxCell>
        <mxCell id="9PHeEGNohPRG5MEMTAq7-75" value="" style="line;strokeWidth=1;fillColor=none;align=left;verticalAlign=middle;spacingTop=-1;spacingLeft=3;spacingRight=3;rotatable=0;labelPosition=right;points=[];portConstraint=eastwest;strokeColor=inherit;" vertex="1" parent="9PHeEGNohPRG5MEMTAq7-73">
          <mxGeometry y="50" width="310" height="8" as="geometry" />
        </mxCell>
        <mxCell id="9PHeEGNohPRG5MEMTAq7-76" value="+ possibleMoves() : boolean [][[]&lt;div&gt;+ possibleMove(position : Position) : boolean&lt;/div&gt;&lt;div&gt;+ isthereAnyPossibleMove() : boolean&lt;/div&gt;" style="text;strokeColor=none;fillColor=none;align=left;verticalAlign=top;spacingLeft=4;spacingRight=4;overflow=hidden;rotatable=0;points=[[0,0.5],[1,0.5]];portConstraint=eastwest;whiteSpace=wrap;html=1;" vertex="1" parent="9PHeEGNohPRG5MEMTAq7-73">
          <mxGeometry y="58" width="310" height="62" as="geometry" />
        </mxCell>
        <mxCell id="9PHeEGNohPRG5MEMTAq7-77" value="" style="rounded=0;whiteSpace=wrap;html=1;" vertex="1" parent="WIyWlLk6GJQsqaUBKTNV-1">
          <mxGeometry x="200" y="970" width="950" height="165" as="geometry" />
        </mxCell>
        <mxCell id="9PHeEGNohPRG5MEMTAq7-78" value="BoardException" style="swimlane;fontStyle=1;align=center;verticalAlign=top;childLayout=stackLayout;horizontal=1;startSize=26;horizontalStack=0;resizeParent=1;resizeParentMax=0;resizeLast=0;collapsible=1;marginBottom=0;whiteSpace=wrap;html=1;" vertex="1" parent="WIyWlLk6GJQsqaUBKTNV-1">
          <mxGeometry x="280" y="1017" width="220" height="60" as="geometry" />
        </mxCell>
        <mxCell id="9PHeEGNohPRG5MEMTAq7-79" value="" style="line;strokeWidth=1;fillColor=none;align=left;verticalAlign=middle;spacingTop=-1;spacingLeft=3;spacingRight=3;rotatable=0;labelPosition=right;points=[];portConstraint=eastwest;strokeColor=inherit;" vertex="1" parent="9PHeEGNohPRG5MEMTAq7-78">
          <mxGeometry y="26" width="220" height="8" as="geometry" />
        </mxCell>
        <mxCell id="9PHeEGNohPRG5MEMTAq7-80" value="+ BoardException(msg: String) : void" style="text;strokeColor=none;fillColor=none;align=left;verticalAlign=top;spacingLeft=4;spacingRight=4;overflow=hidden;rotatable=0;points=[[0,0.5],[1,0.5]];portConstraint=eastwest;whiteSpace=wrap;html=1;" vertex="1" parent="9PHeEGNohPRG5MEMTAq7-78">
          <mxGeometry y="34" width="220" height="26" as="geometry" />
        </mxCell>
        <mxCell id="9PHeEGNohPRG5MEMTAq7-81" value="Position" style="swimlane;fontStyle=1;align=center;verticalAlign=top;childLayout=stackLayout;horizontal=1;startSize=26;horizontalStack=0;resizeParent=1;resizeParentMax=0;resizeLast=0;collapsible=1;marginBottom=0;whiteSpace=wrap;html=1;" vertex="1" parent="WIyWlLk6GJQsqaUBKTNV-1">
          <mxGeometry x="790" y="990" width="280" height="110" as="geometry" />
        </mxCell>
        <mxCell id="9PHeEGNohPRG5MEMTAq7-82" value="&lt;div&gt;- row : int&lt;/div&gt;&lt;div&gt;- column : int&lt;/div&gt;" style="text;strokeColor=none;fillColor=none;align=left;verticalAlign=top;spacingLeft=4;spacingRight=4;overflow=hidden;rotatable=0;points=[[0,0.5],[1,0.5]];portConstraint=eastwest;whiteSpace=wrap;html=1;" vertex="1" parent="9PHeEGNohPRG5MEMTAq7-81">
          <mxGeometry y="26" width="280" height="34" as="geometry" />
        </mxCell>
        <mxCell id="9PHeEGNohPRG5MEMTAq7-83" value="" style="line;strokeWidth=1;fillColor=none;align=left;verticalAlign=middle;spacingTop=-1;spacingLeft=3;spacingRight=3;rotatable=0;labelPosition=right;points=[];portConstraint=eastwest;strokeColor=inherit;" vertex="1" parent="9PHeEGNohPRG5MEMTAq7-81">
          <mxGeometry y="60" width="280" height="18" as="geometry" />
        </mxCell>
        <mxCell id="9PHeEGNohPRG5MEMTAq7-84" value="+ setValues(row : int, column : int) : void" style="text;strokeColor=none;fillColor=none;align=left;verticalAlign=top;spacingLeft=4;spacingRight=4;overflow=hidden;rotatable=0;points=[[0,0.5],[1,0.5]];portConstraint=eastwest;whiteSpace=wrap;html=1;" vertex="1" parent="9PHeEGNohPRG5MEMTAq7-81">
          <mxGeometry y="78" width="280" height="32" as="geometry" />
        </mxCell>
        <mxCell id="9PHeEGNohPRG5MEMTAq7-86" value="Board layer" style="text;html=1;align=center;verticalAlign=middle;whiteSpace=wrap;rounded=0;" vertex="1" parent="WIyWlLk6GJQsqaUBKTNV-1">
          <mxGeometry x="60" y="730" width="70" height="30" as="geometry" />
        </mxCell>
        <mxCell id="9PHeEGNohPRG5MEMTAq7-87" value="" style="endArrow=open;html=1;endSize=12;startArrow=diamondThin;startSize=14;startFill=1;edgeStyle=orthogonalEdgeStyle;align=left;verticalAlign=bottom;rounded=0;exitX=0.5;exitY=1;exitDx=0;exitDy=0;exitPerimeter=0;entryX=0.5;entryY=0;entryDx=0;entryDy=0;" edge="1" parent="WIyWlLk6GJQsqaUBKTNV-1" source="9PHeEGNohPRG5MEMTAq7-21" target="9PHeEGNohPRG5MEMTAq7-69">
          <mxGeometry x="-1" y="3" relative="1" as="geometry">
            <mxPoint x="520" y="840" as="sourcePoint" />
            <mxPoint x="680" y="840" as="targetPoint" />
          </mxGeometry>
        </mxCell>
        <mxCell id="9PHeEGNohPRG5MEMTAq7-89" value="1" style="edgeLabel;html=1;align=center;verticalAlign=middle;resizable=0;points=[];" vertex="1" connectable="0" parent="9PHeEGNohPRG5MEMTAq7-87">
          <mxGeometry x="0.7622" y="3" relative="1" as="geometry">
            <mxPoint x="-13" y="-3" as="offset" />
          </mxGeometry>
        </mxCell>
        <mxCell id="9PHeEGNohPRG5MEMTAq7-90" value="&amp;nbsp;- board" style="edgeLabel;html=1;align=center;verticalAlign=middle;resizable=0;points=[];" vertex="1" connectable="0" parent="9PHeEGNohPRG5MEMTAq7-87">
          <mxGeometry x="0.7297" y="-4" relative="1" as="geometry">
            <mxPoint x="24" as="offset" />
          </mxGeometry>
        </mxCell>
        <mxCell id="9PHeEGNohPRG5MEMTAq7-94" value="" style="line;strokeWidth=1;fillColor=none;align=left;verticalAlign=middle;spacingTop=-1;spacingLeft=3;spacingRight=3;rotatable=0;labelPosition=right;points=[];portConstraint=eastwest;strokeColor=inherit;" vertex="1" parent="WIyWlLk6GJQsqaUBKTNV-1">
          <mxGeometry x="495" y="816" width="305" height="8" as="geometry" />
        </mxCell>
        <mxCell id="9PHeEGNohPRG5MEMTAq7-96" value="1" style="text;html=1;align=center;verticalAlign=middle;whiteSpace=wrap;rounded=0;" vertex="1" parent="WIyWlLk6GJQsqaUBKTNV-1">
          <mxGeometry x="480" y="794" width="60" height="30" as="geometry" />
        </mxCell>
        <mxCell id="9PHeEGNohPRG5MEMTAq7-97" value="- board" style="text;html=1;align=center;verticalAlign=middle;whiteSpace=wrap;rounded=0;" vertex="1" parent="WIyWlLk6GJQsqaUBKTNV-1">
          <mxGeometry x="490" y="824" width="60" height="30" as="geometry" />
        </mxCell>
        <mxCell id="9PHeEGNohPRG5MEMTAq7-99" value="" style="shape=ellipse;fillColor=#000000;strokeColor=none;html=1;sketch=0;" vertex="1" parent="WIyWlLk6GJQsqaUBKTNV-1">
          <mxGeometry x="777.5" y="807" width="5" height="4" as="geometry" />
        </mxCell>
        <mxCell id="9PHeEGNohPRG5MEMTAq7-100" value="- pieces" style="text;html=1;align=center;verticalAlign=middle;whiteSpace=wrap;rounded=0;" vertex="1" parent="WIyWlLk6GJQsqaUBKTNV-1">
          <mxGeometry x="740" y="824" width="60" height="30" as="geometry" />
        </mxCell>
      </root>
    </mxGraphModel>
  </diagram>
</mxfile>
